<svg width="14" height="16" viewBox="0 0 14 16" fill="none" xmlns="http://www.w3.org/2000/svg">
<path d="M11.1835 3.5283H10.163C10.0536 2.71728 9.65726 1.9723 9.04581 1.42839C8.43435 0.884485 7.64826 0.577647 6.83002 0.563499C6.01178 0.577647 5.22568 0.884485 4.61423 1.42839C4.00277 1.9723 3.60642 2.71728 3.49702 3.5283H2.47702C1.9158 3.52867 1.37767 3.75172 0.980763 4.14848C0.583852 4.54524 0.360599 5.08329 0.360016 5.6445V13.36C0.360519 13.9211 0.583621 14.4592 0.980362 14.856C1.3771 15.2528 1.91507 15.4761 2.47622 15.4767H11.1832C11.7445 15.4762 12.2826 15.2531 12.6795 14.8562C13.0763 14.4594 13.2995 13.9212 13.3 13.36V5.6445C13.2994 5.08338 13.0762 4.5454 12.6794 4.14866C12.2826 3.75191 11.7446 3.5288 11.1835 3.5283ZM6.83002 1.6631C7.35743 1.67456 7.86513 1.86567 8.2692 2.20482C8.67327 2.54397 8.94949 3.01086 9.05222 3.5283H4.60782C4.71054 3.01086 4.98677 2.54397 5.39083 2.20482C5.7949 1.86567 6.30261 1.67456 6.83002 1.6631ZM12.2 13.36C12.1997 13.6296 12.0925 13.888 11.902 14.0787C11.7114 14.2694 11.453 14.3767 11.1834 14.3771H2.47652C2.20696 14.3766 1.94858 14.2693 1.75803 14.0787C1.56748 13.888 1.46031 13.6296 1.46002 13.36V5.6445C1.46033 5.37498 1.56754 5.11659 1.75812 4.92601C1.9487 4.73542 2.20709 4.62822 2.47662 4.6279H11.1836C11.4531 4.62827 11.7114 4.7355 11.902 4.92608C12.0925 5.11665 12.1997 5.37501 12.2 5.6445V13.36Z" fill="black" fill-opacity="0.8"/>
</svg>
