<svg width="15" height="16" viewBox="0 0 15 16" fill="none" xmlns="http://www.w3.org/2000/svg">
<path d="M13.988 13.702L10.118 9.832C10.819 8.903 11.24 7.751 11.24 6.5C11.24 3.44 8.75101 0.949997 5.69001 0.949997C2.63001 0.949997 0.140015 3.44 0.140015 6.5C0.140015 9.561 2.63001 12.05 5.69001 12.05C6.94101 12.05 8.09301 11.629 9.02201 10.928L12.892 14.798C13.043 14.949 13.242 15.026 13.44 15.026C13.638 15.026 13.836 14.95 13.988 14.798C14.291 14.495 14.291 14.005 13.988 13.702ZM1.24001 6.5C1.24001 4.046 3.23701 2.05 5.69001 2.05C8.14401 2.05 10.14 4.047 10.14 6.5C10.14 8.953 8.14401 10.95 5.69001 10.95C3.23601 10.95 1.24001 8.954 1.24001 6.5Z" fill="black" fill-opacity="0.8"/>
</svg>
